<?xml version="1.0" encoding="UTF-8" standalone="no"?>
<svg
   xmlns:dc="http://purl.org/dc/elements/1.1/"
   xmlns:cc="http://creativecommons.org/ns#"
   xmlns:rdf="http://www.w3.org/1999/02/22-rdf-syntax-ns#"
   xmlns:svg="http://www.w3.org/2000/svg"
   xmlns="http://www.w3.org/2000/svg"
   xmlns:sodipodi="http://sodipodi.sourceforge.net/DTD/sodipodi-0.dtd"
   xmlns:inkscape="http://www.inkscape.org/namespaces/inkscape"
   inkscape:version="1.0 (4035a4fb49, 2020-05-01)"
   sodipodi:docname="master.svg"
   id="svg12"
   version="1.1"
   viewBox="0 0 330.93459 390.19478"
   height="520.2597"
   width="441.24609">
  <metadata
     id="metadata16">
    <rdf:RDF>
      <cc:Work
         rdf:about="">
        <dc:format>image/svg+xml</dc:format>
        <dc:type
           rdf:resource="http://purl.org/dc/dcmitype/StillImage" />
        <dc:title></dc:title>
      </cc:Work>
    </rdf:RDF>
  </metadata>
  <sodipodi:namedview
     inkscape:document-rotation="0"
     units="px"
     inkscape:current-layer="svg12"
     inkscape:window-maximized="0"
     inkscape:window-y="1458"
     inkscape:window-x="500"
     inkscape:cy="255.69947"
     inkscape:cx="287.49883"
     inkscape:zoom="1.6822298"
     fit-margin-bottom="0"
     fit-margin-right="0"
     fit-margin-left="0"
     fit-margin-top="0"
     showgrid="false"
     id="namedview14"
     inkscape:window-height="1041"
     inkscape:window-width="1916"
     inkscape:pageshadow="2"
     inkscape:pageopacity="0"
     guidetolerance="10"
     gridtolerance="10"
     objecttolerance="10"
     borderopacity="1"
     bordercolor="#666666"
     pagecolor="#ffffff" />
  <defs
     id="defs2" />
  <ellipse
     style="fill:#242424;fill-rule:evenodd;stroke-width:0.979152"
     cy="39.629681"
     cx="203.09164"
     ry="10.126797"
     rx="44.157215"
     transform="rotate(14.700865)"
     id="shape0" />
  <rect
     style="fill:#242424;fill-rule:evenodd;stroke:#242424;stroke-width:0.96;stroke-linecap:square;stroke-linejoin:bevel"
     y="39.267223"
     x="160.43263"
     height="17.280001"
     width="85.440002"
     transform="rotate(14.700865)"
     id="shape1" />
  <path
     style="fill:none;stroke:#242424;stroke-width:6;stroke-linecap:square;stroke-linejoin:bevel"
     inkscape:connector-curvature="0"
     d="m 188.51294,85.785652 c 11.06382,-31.051234 83.38852,-9.355546 78.5617,-48.931585"
     id="shape2" />
  <path
     style="fill:#e20200;fill-rule:evenodd;stroke:#e20200;stroke-width:4.21899;stroke-linecap:square;stroke-linejoin:bevel"
     inkscape:connector-curvature="0"
     d="m 267.67073,47.412661 -41.75965,-1.820085 28.8879,-7.314923 -42.01693,-14.865682 41.44584,6.019039 -32.43362,-27.6806523 43.41014,29.1998073 5.6044,-25.5272216 11.36555,29.2900656 35.95451,-2.942955 -24.65803,16.667931 36.21786,26.507445 -47.44534,-24.667417 0.89726,37.457503 z"
     id="shape3" />
  <path
     style="fill:#f14a1a;fill-rule:evenodd;stroke:#f14a1a;stroke-width:2.24466;stroke-linecap:square;stroke-linejoin:bevel"
     inkscape:connector-curvature="0"
     d="m 256.3688,37.245895 -13.99417,6.980153 27.89896,2.557211 7.82692,21.757904 v 0 l 2.36922,-21.631812 39.45012,20.970984 -34.34931,-23.033776 20.33429,-8.740565 -25.70298,4.594743 -6.99697,-24.390644 -7.04439,13.87482 -27.9514,-15.801457 14.10436,15.256745 -14.88187,0.620373 z"
     id="shape4" />
  <path
     style="fill:#dcb745;fill-rule:evenodd;stroke:#dcb745;stroke-width:1.74582;stroke-linecap:square;stroke-linejoin:bevel"
     inkscape:connector-curvature="0"
     d="m 262.0845,38.495693 -12.41529,4.33102 20.06177,0.480108 5.766,14.658193 0.97354,-13.013079 31.01689,15.668919 -24.59638,-16.310152 11.07744,-3.92145 -16.26385,0.0789 -6.67829,-11.200217 -4.49752,4.423333 -18.28768,-11.089406 11.17314,10.088923 -8.45239,-0.590885 z"
     id="shape5" />
  <ellipse
     style="fill:#1c1c1c;fill-rule:evenodd"
     ry="146.75999"
     rx="146.88"
     cy="243.4348"
     cx="146.88"
     id="shape6" />
  <path
     style="fill:#262525;fill-rule:evenodd;stroke:#000000;stroke-width:0;stroke-linecap:square;stroke-linejoin:bevel;stroke-opacity:0"
     inkscape:connector-curvature="0"
     d="M 141.33925,103.77472 C 15.050908,149.44136 9.184149,227.92734 27.512058,280.62225 57.749011,283.57382 53.891029,169.18407 141.33925,103.77472 Z"
     id="shape7" />
</svg>
