<?xml version="1.0" standalone="no"?>
<!DOCTYPE svg PUBLIC "-//W3C//DTD SVG 20010904//EN"
 "http://www.w3.org/TR/2001/REC-SVG-20010904/DTD/svg10.dtd">
<svg version="1.0" xmlns="http://www.w3.org/2000/svg"
 width="1098.000000pt" height="1098.000000pt" viewBox="0 0 1098.000000 1098.000000"
 preserveAspectRatio="xMidYMid meet">
<metadata>
Created by potrace 1.11, written by Peter Selinger 2001-2013
</metadata>
<g transform="translate(0.000000,1098.000000) scale(0.100000,-0.100000)"
fill="#000000" stroke="none">
<path d="M8195 10608 c-90 -276 -125 -373 -136 -372 -8 1 -102 57 -209 125
-107 68 -310 196 -450 285 -240 153 -256 162 -273 146 -17 -15 -9 -25 155
-186 458 -451 558 -550 555 -552 -2 -2 -37 1 -520 37 -164 12 -299 20 -301 18
-2 -2 -6 -13 -10 -24 -5 -19 27 -37 331 -182 186 -89 338 -165 339 -170 1 -4
-88 -93 -197 -197 -109 -104 -199 -194 -199 -200 1 -32 20 -35 380 -55 201
-12 397 -23 437 -27 l72 -6 -6 -31 c-21 -113 -119 -225 -258 -294 -107 -54
-346 -120 -550 -153 -423 -69 -748 -151 -897 -226 -116 -59 -250 -167 -299
-241 l-15 -21 -129 29 c-304 70 -592 105 -780 96 -129 -6 -206 -24 -250 -59
-24 -19 -27 -26 -22 -66 3 -32 -8 -92 -44 -230 -26 -102 -46 -188 -43 -192 3
-3 20 -10 37 -16 28 -10 18 -12 -83 -18 -838 -53 -1595 -345 -2245 -864 -159
-127 -465 -435 -597 -600 -462 -579 -746 -1264 -835 -2007 -25 -210 -25 -670
0 -880 126 -1059 650 -1991 1492 -2654 105 -83 363 -253 494 -326 447 -249
950 -410 1466 -472 111 -13 224 -18 440 -18 216 0 329 5 440 18 875 104 1670
482 2289 1087 335 328 572 650 774 1055 190 380 314 778 379 1220 26 179 28
210 28 525 0 340 -2 373 -46 649 -60 374 -183 749 -365 1114 -197 395 -434
718 -765 1042 -210 206 -392 352 -609 489 -84 54 -95 64 -80 73 9 6 22 33 27
60 28 135 86 330 104 349 104 111 -262 346 -801 514 -55 17 -100 35 -100 39 0
16 93 92 160 131 137 79 347 140 685 200 473 83 633 124 802 206 175 84 285
198 338 349 12 36 25 68 27 71 4 4 58 -65 448 -576 316 -415 362 -471 377
-466 8 3 17 6 19 6 12 0 -10 68 -172 540 -96 282 -173 514 -171 516 2 3 44
-13 93 -34 176 -77 840 -374 866 -388 25 -13 28 -12 42 8 15 21 4 30 -417 365
-238 190 -432 350 -432 357 0 7 110 129 245 271 135 141 246 260 248 264 1 4
-4 15 -11 25 -13 17 -24 17 -288 2 -257 -15 -575 -31 -609 -31 -10 0 -18 18
-26 60 -9 46 -135 653 -173 830 -5 22 -13 31 -31 33 -24 2 -28 -8 -145 -370z
m230 -494 c33 -141 63 -261 67 -267 5 -8 93 -1 313 27 169 20 309 35 311 33 2
-2 -92 -65 -208 -139 -117 -75 -213 -140 -213 -145 0 -6 84 -81 188 -169 103
-87 183 -160 179 -162 -4 -1 -99 29 -211 68 -112 39 -206 69 -207 67 -4 -3 21
-72 152 -427 20 -52 38 -104 41 -115 3 -11 -82 70 -188 180 -106 110 -232 240
-279 288 l-85 88 -248 23 c-136 13 -250 26 -253 28 -3 3 39 46 93 96 53 50 95
93 93 95 -3 2 -104 55 -225 117 -121 62 -222 114 -224 116 -3 2 116 1 264 -3
l268 -6 -182 216 c-100 120 -179 217 -176 217 3 0 137 -102 298 -226 272 -210
292 -224 298 -202 3 13 19 122 35 241 16 119 31 217 34 217 3 0 32 -115 65
-256z"/>
</g>
</svg>
